<?xml version="1.0" standalone="no"?><!DOCTYPE svg PUBLIC "-//W3C//DTD SVG 1.1//EN" "http://www.w3.org/Graphics/SVG/1.1/DTD/svg11.dtd"><svg t="1714677987102" class="icon" viewBox="0 0 1024 1024" version="1.1" xmlns="http://www.w3.org/2000/svg" p-id="24793" xmlns:xlink="http://www.w3.org/1999/xlink" width="12" height="12"><path d="M636.416 164.864c-57.856 71.68-163.328 82.944-235.008 24.576-7.68-6.144-14.336-12.8-20.992-19.968-28.672 11.264-55.808 25.6-80.896 43.008 24.064 89.088-28.16 180.736-117.248 205.312-9.728 2.56-19.968 4.608-30.208 5.12-11.264 41.984-15.36 86.016-11.264 129.536 45.056 8.192 91.648 31.744 116.736 72.192 32.256 51.712 37.376 131.072 10.24 182.784 37.888 35.84 61.44 51.2 110.592 68.608 33.28-57.856 88.576-88.576 134.144-91.136 43.008-2.56 115.2-1.024 165.376 74.24 33.28-15.872 64-36.864 91.136-61.44-46.592-79.872-19.456-181.76 59.904-228.352 18.944-10.752 39.424-17.92 60.928-20.992 3.584-46.08-1.536-92.16-14.848-136.192-47.104-7.168-89.6-34.304-115.712-75.776-22.528-35.328-30.72-78.336-23.04-119.808-30.72-22.528-64.512-39.936-99.84-51.712z m165.888 57.856c-16.896 43.008 7.168 101.376 49.664 118.272 10.752 4.608 22.528 6.144 34.304 5.632l30.208-1.024 10.752 28.16c28.672 75.776 37.376 124.928 24.064 205.312l-3.584 20.48h-39.936c-45.568-5.12-96.256 55.296-101.376 100.864-2.56 25.088 0.512 53.76 18.432 71.68l18.432 26.624-22.016 29.696c-58.368 49.152-71.168 56.32-143.872 90.112l-35.84 14.848c-14.848-65.024-61.952-95.744-111.104-93.184-60.416 3.584-98.816 40.448-103.936 106.496l-41.984-10.24c-89.6-22.016-122.368-44.544-184.32-114.176l-20.48-22.016 17.408-14.336c24.064-27.648 9.216-96.768-10.24-128.512-16.384-25.6-48.64-40.448-78.336-39.424l-27.648 3.072-6.144-36.352C61.44 506.88 66.048 440.832 92.16 366.592l11.264-31.744 33.792 4.608c45.568 6.144 87.552-25.6 93.696-71.68 2.56-17.408-0.512-34.816-8.704-50.176L204.8 196.608l26.112-21.504c47.616-39.424 93.696-70.144 152.576-87.552l32.256-9.728 16.384 29.696c22.016 40.448 72.704 55.296 113.152 33.28 14.848-8.192 27.136-20.48 34.816-35.84l14.848-30.208 32.768 8.192c66.56 16.896 110.08 46.08 162.816 90.624l23.04 19.456-11.264 29.696zM350.72 529.408c8.192 90.624 88.576 157.184 178.688 148.48 90.624-8.192 157.184-88.576 148.48-178.688-8.192-90.624-88.576-157.184-178.688-148.48s-156.672 88.064-148.48 178.688z m78.336-7.168c-4.608-47.104 30.208-89.088 77.824-93.696 47.104-4.608 89.088 30.208 93.696 77.824 4.608 47.104-30.208 89.088-77.824 93.696s-89.088-30.72-93.696-77.824z" fill="#000000" p-id="24794"></path></svg>