<?xml version="1.0" standalone="no"?><!DOCTYPE svg PUBLIC "-//W3C//DTD SVG 1.1//EN" "http://www.w3.org/Graphics/SVG/1.1/DTD/svg11.dtd"><svg t="1714718149757" class="icon" viewBox="0 0 1027 1024" version="1.1" xmlns="http://www.w3.org/2000/svg" p-id="1632" xmlns:xlink="http://www.w3.org/1999/xlink" width="12.03515625" height="12"><path d="M791.893333 750.933333h-194.56c-10.24 0-17.066667-6.826667-17.066666-17.066666s6.826667-17.066667 17.066666-17.066667h194.56c109.226667 0 197.973333-88.746667 197.973334-197.973333s-88.746667-197.973333-197.973334-197.973334c-10.24 0-20.48-6.826667-20.48-13.653333-20.48-136.533333-139.946667-238.933333-279.893333-238.933333C334.506667 68.266667 204.8 194.56 204.8 351.573333c0 13.653333 0 23.893333 3.413333 40.96 0 3.413333 0 10.24-3.413333 13.653334-3.413333 3.413333-10.24 3.413333-13.653333 3.413333h-3.413334C102.4 409.6 34.133333 477.866667 34.133333 563.2S102.4 716.8 187.733333 716.8h204.8c10.24 0 17.066667 6.826667 17.066667 17.066667s-6.826667 17.066667-17.066667 17.066666h-204.8c-102.4 0-187.733333-85.333333-187.733333-187.733333 0-98.986667 75.093333-177.493333 174.08-187.733333v-27.306667C170.666667 174.08 314.026667 34.133333 491.52 34.133333c153.6 0 283.306667 109.226667 314.026667 256 122.88 6.826667 221.866667 105.813333 221.866666 228.693334C1024 648.533333 918.186667 750.933333 791.893333 750.933333z" fill="#000000" p-id="1633"></path><path d="M494.933333 989.866667h-6.826666c-6.826667-3.413333-10.24-10.24-10.24-17.066667v-443.733333c0-10.24 6.826667-17.066667 17.066666-17.066667s17.066667 6.826667 17.066667 17.066667v402.773333l54.613333-54.613333c6.826667-6.826667 17.066667-6.826667 23.893334 0s6.826667 17.066667 0 23.893333l-85.333334 85.333333s-6.826667 3.413333-10.24 3.413334z" fill="#000000" p-id="1634"></path><path d="M494.933333 989.866667c-3.413333 0-10.24 0-13.653333-3.413334l-85.333333-85.333333c-6.826667-6.826667-6.826667-17.066667 0-23.893333s17.066667-6.826667 23.893333 0l85.333333 85.333333c6.826667 6.826667 6.826667 17.066667 0 23.893333 0 3.413333-6.826667 3.413333-10.24 3.413334z" fill="#000000" p-id="1635"></path></svg>