<?xml version="1.0" standalone="no"?><!DOCTYPE svg PUBLIC "-//W3C//DTD SVG 1.1//EN" "http://www.w3.org/Graphics/SVG/1.1/DTD/svg11.dtd"><svg t="1714739812671" class="icon" viewBox="0 0 1024 1024" version="1.1" xmlns="http://www.w3.org/2000/svg" p-id="2441" xmlns:xlink="http://www.w3.org/1999/xlink" width="12" height="12"><path d="M798.72 819.2H682.666667v-68.266667h116.053333c80.213333 0 145.066667-64.853333 145.066667-145.066666S878.933333 460.8 798.72 460.8H750.933333v-34.133333c0-131.413333-107.52-238.933333-238.933333-238.933334s-238.933333 107.52-238.933333 238.933334v34.133333h-37.546667c-80.213333 0-145.066667 64.853333-145.066667 145.066667S155.306667 750.933333 235.52 750.933333H341.333333v68.266667h-105.813333C117.76 819.2 20.48 723.626667 20.48 605.866667c0-107.52 80.213333-197.973333 184.32-211.626667C221.866667 240.64 353.28 119.466667 512 119.466667s288.426667 119.466667 305.493333 274.773333c109.226667 10.24 194.56 100.693333 194.56 211.626667-1.706667 117.76-97.28 213.333333-213.333333 213.333333z" fill="#191919" p-id="2442"></path><path d="M482.986667 515.413333h68.266666v307.2h-68.266666z" fill="#00C97C" p-id="2443"></path><path d="M515.413333 901.12l-150.186666-148.48 47.786666-49.493333 102.4 102.4 100.693334-102.4 47.786666 49.493333z" fill="#00C97C" p-id="2444"></path></svg>