<?xml version="1.0" standalone="no"?><!DOCTYPE svg PUBLIC "-//W3C//DTD SVG 1.1//EN" "http://www.w3.org/Graphics/SVG/1.1/DTD/svg11.dtd"><svg t="1714678024775" class="icon" viewBox="0 0 1024 1024" version="1.1" xmlns="http://www.w3.org/2000/svg" p-id="26150" xmlns:xlink="http://www.w3.org/1999/xlink" width="12" height="12"><path d="M256 74.666667a32 32 0 0 1 32 32v810.666666a32 32 0 0 1-64 0v-810.666666A32 32 0 0 1 256 74.666667zM768 74.666667a32 32 0 0 1 32 32v810.666666a32 32 0 0 1-64 0v-810.666666a32 32 0 0 1 32-32z" p-id="26151" fill="#000000"></path><path d="M224 512a32 32 0 0 1 32-32h512a32 32 0 0 1 0 64H256a32 32 0 0 1-32-32z" p-id="26152" fill="#000000"></path></svg>