<?xml version="1.0" standalone="no"?><!DOCTYPE svg PUBLIC "-//W3C//DTD SVG 1.1//EN" "http://www.w3.org/Graphics/SVG/1.1/DTD/svg11.dtd"><svg t="1714678429599" class="icon" viewBox="0 0 1024 1024" version="1.1" xmlns="http://www.w3.org/2000/svg" p-id="29069" xmlns:xlink="http://www.w3.org/1999/xlink" width="12" height="12"><path d="M803.474286 641.389714a299.812571 299.812571 0 0 1 189.659428 253.513143 36.571429 36.571429 0 0 1-72.850285 6.436572C909.897143 784.822857 813.494857 694.857143 697.782857 694.857143c-115.785143 0-212.260571 89.965714-222.500571 206.555428a36.571429 36.571429 0 1 1-72.850286-6.436571 299.666286 299.666286 0 0 1 197.485714-256.512A156.818286 156.818286 0 0 1 548.571429 522.24C548.571429 435.858286 617.764571 365.714286 703.268571 365.714286c85.577143 0 154.770286 70.144 154.770286 156.452571 0 47.689143-21.211429 90.477714-54.564571 119.222857zM292.571429 914.285714a36.571429 36.571429 0 1 1 0 73.142857h-58.514286c-109.787429 0-197.485714-95.670857-197.485714-212.114285V248.685714C36.571429 132.242286 124.269714 36.571429 234.057143 36.571429h482.742857c109.787429 0 197.485714 95.670857 197.485714 212.114285a36.571429 36.571429 0 1 1-73.142857 0c0-77.458286-56.393143-138.971429-124.342857-138.971428H234.057143c-67.949714 0-124.342857 61.513143-124.342857 138.971428v526.628572c0 77.458286 56.393143 138.971429 124.342857 138.971428H292.571429zM182.857143 292.571429h292.571428a36.571429 36.571429 0 0 1 0 73.142857h-292.571428a36.571429 36.571429 0 0 1 0-73.142857z m0 219.428571h146.285714a36.571429 36.571429 0 0 1 0 73.142857h-146.285714a36.571429 36.571429 0 0 1 0-73.142857z m520.411428 93.403429c44.982857 0 81.627429-37.156571 81.627429-83.236572 0-46.08-36.644571-83.309714-81.627429-83.309714C658.358857 438.857143 621.714286 476.013714 621.714286 522.166857c0 46.08 36.644571 83.236571 81.554285 83.236572z" fill="#000000" p-id="29070"></path></svg>