<?xml version="1.0" standalone="no"?><!DOCTYPE svg PUBLIC "-//W3C//DTD SVG 1.1//EN" "http://www.w3.org/Graphics/SVG/1.1/DTD/svg11.dtd"><svg t="1714677850459" class="icon" viewBox="0 0 1024 1024" version="1.1" xmlns="http://www.w3.org/2000/svg" p-id="20489" xmlns:xlink="http://www.w3.org/1999/xlink" width="12" height="12"><path d="M66.429118 128.874988h135.842932v23.10928A39.857914 39.857914 0 0 0 242.066038 191.778256h399.857665a39.857914 39.857914 0 0 0 39.793988-39.793988v-23.10928h135.842931v345.009084h63.926086V103.432406a38.54743 38.54743 0 0 0-38.515467-38.483503H681.717691v-25.154915A39.857914 39.857914 0 0 0 641.923703 0H242.066038A39.857914 39.857914 0 0 0 202.27205 39.793988v25.154915H41.018499A38.54743 38.54743 0 0 0 2.503033 103.464369v882.020165a38.54743 38.54743 0 0 0 38.515466 38.515466h501.564067v-63.926085H66.429118zM266.198135 63.926085h351.59347v63.926086h-351.59347z" fill="#000000" p-id="20490"></path><path d="M143.939497 391.355495h351.657396v63.926086H143.939497zM143.939497 664.447732h230.549427v63.926086H143.939497zM1015.156153 851.815089l-42.574773-24.611543a140.381684 140.381684 0 0 0-0.447483-56.159066l42.382995-24.451728a12.689328 12.689328 0 0 0 4.634641-17.323969L972.261749 647.954802a12.657365 12.657365 0 0 0-17.323969-4.634641l-43.885258 25.346693a170.043387 170.043387 0 0 0-47.561007-27.456254v-49.958236a12.657365 12.657365 0 0 0-12.657365-12.689328h-93.875457a12.657365 12.657365 0 0 0-12.689328 12.689328v49.926273a170.139276 170.139276 0 0 0-48.104379 27.871773l-42.702625-24.643505a12.689328 12.689328 0 0 0-17.323969 4.634641l-46.95371 81.31398a12.657365 12.657365 0 0 0 4.666604 17.292007l41.615882 24.036208a143.929581 143.929581 0 0 0-0.159815 57.629366l-40.848769 23.556762a12.689328 12.689328 0 0 0-4.634641 17.323969l46.921747 81.313981a12.657365 12.657365 0 0 0 17.323969 4.634641l40.912695-23.620688a170.235166 170.235166 0 0 0 50.501607 29.246184v46.442301a12.657365 12.657365 0 0 0 12.689328 12.689328h93.90742a12.657365 12.657365 0 0 0 12.657365-12.689328v-47.241377a170.426944 170.426944 0 0 0 49.542716-29.72563l41.264288 23.812467a12.689328 12.689328 0 0 0 17.323969-4.634641l46.95371-81.313981a12.657365 12.657365 0 0 0-4.634641-17.292006zM803.816514 908.709305a107.45975 107.45975 0 1 1 107.45975-107.45975 107.587602 107.587602 0 0 1-107.45975 107.45975z" fill="#000000" p-id="20491"></path></svg>