<?xml version="1.0" standalone="no"?><!DOCTYPE svg PUBLIC "-//W3C//DTD SVG 1.1//EN" "http://www.w3.org/Graphics/SVG/1.1/DTD/svg11.dtd"><svg t="1714677729392" class="icon" viewBox="0 0 1024 1024" version="1.1" xmlns="http://www.w3.org/2000/svg" p-id="15903" xmlns:xlink="http://www.w3.org/1999/xlink" width="12" height="12"><path d="M853.333333 0a170.666667 170.666667 0 0 1 170.666667 170.666667v682.666666a170.666667 170.666667 0 0 1-170.666667 170.666667H170.666667a170.666667 170.666667 0 0 1-170.666667-170.666667V170.666667a170.666667 170.666667 0 0 1 170.666667-170.666667h682.666666z m0 42.666667H170.666667a128 128 0 0 0-127.786667 120.490666L42.666667 170.666667v682.666666a128 128 0 0 0 120.490666 127.786667L170.666667 981.333333h682.666666a128 128 0 0 0 127.786667-120.490666L981.333333 853.333333V170.666667a128 128 0 0 0-120.490666-127.786667L853.333333 42.666667zM416.256 317.098667v154.112h191.488V317.098667h55.808V682.666667h-55.808v-163.84H416.256V682.666667H360.448V317.098667h55.808z" fill="#000000" p-id="15904"></path></svg>